<?xml version="1.0" encoding="UTF-8"?>
<svg version="1.1" xmlns="http://www.w3.org/2000/svg" width="2175" height="625">
<path d="M0 0 C10.62143001 0.6861909 21.2349624 1.21615353 31.8734436 1.54998779 C33.10602905 1.58986816 34.3386145 1.62974854 35.60855103 1.6708374 C47.34943348 2.01665076 59.07563445 2.09815973 70.8109436 1.54998779 C71.73753784 1.50817383 72.66413208 1.46635986 73.61880493 1.42327881 C80.06287613 1.10323622 86.4589324 0.54871395 92.8734436 -0.13751221 C115.63146682 -2.51547903 115.63146682 -2.51547903 125.0843811 4.29217529 C134.2383352 12.61771725 139.75301589 25.63736346 144.9359436 36.61248779 C145.54374104 37.88654135 146.15198655 39.16038124 146.76065063 40.434021 C151.08291292 49.50078652 155.30851514 58.61238099 159.49649048 67.74188232 C163.75267164 77.01748981 168.08538644 86.25588912 172.4359436 95.48748779 C172.76447327 96.18465912 173.09300293 96.88183044 173.43148804 97.60012817 C173.75248474 98.28120636 174.07348145 98.96228455 174.40420532 99.66400146 C174.72271454 100.33991837 175.04122375 101.01583527 175.36938477 101.7122345 C176.00420473 103.05800627 176.63995772 104.40333833 177.27667236 105.74821472 C178.98760252 109.36501503 180.67807283 112.98991795 182.34414673 116.62762451 C182.7016803 117.40258774 183.05921387 118.17755096 183.42758179 118.97599792 C184.11449302 120.46592464 184.79628785 121.95822438 185.47213745 123.45320129 C187.20179597 127.27195235 187.20179597 127.27195235 189.79660034 130.51460266 C191.1859436 131.92498779 191.1859436 131.92498779 191.1859436 133.92498779 C194.8014827 135.13016749 198.46116584 135.88299205 202.1859436 134.92498779 C206.37399104 130.82070131 208.55077695 125.41699806 210.9984436 120.17498779 C211.46927368 119.17838135 211.94010376 118.1817749 212.42520142 117.15496826 C218.49369895 104.24522769 224.35658189 91.23968013 230.23330688 78.24188232 C234.97459608 67.7565383 239.73612144 57.2803417 244.50698853 46.8084259 C245.98317 43.56819258 247.45766476 40.32722041 248.92764282 37.08416748 C250.54909488 33.50738464 252.17959167 29.93476701 253.8109436 26.36248779 C254.28362671 25.31649414 254.75630981 24.27050049 255.24331665 23.19281006 C262.38836599 7.60793637 262.38836599 7.60793637 268.1234436 3.54998779 C268.75121704 3.08850342 269.37899048 2.62701904 270.02578735 2.15155029 C280.54227248 -3.81983547 293.9048044 -1.11002562 305.41763306 0.1383667 C334.16660167 3.20994262 363.22749885 2.06572978 391.9984436 -0.13751221 C421.78984887 -2.3781946 421.78984887 -2.3781946 429.1859436 1.92498779 C434.47249611 6.70504425 437.8030399 11.25923523 438.3968811 18.49530029 C438.73631346 28.07773692 434.84286984 34.7838943 430.05899048 42.76287842 C424.60718779 52.04846297 424.04351287 61.187794 423.62678528 71.68647766 C423.58454022 72.73694544 423.54229515 73.78741323 423.49876994 74.86971337 C423.0475093 87.16031202 423.08098851 99.44427182 423.13247681 111.7411499 C423.13936766 114.33103832 423.14581387 116.92092795 423.15185547 119.51081848 C423.16735265 125.74701785 423.18867267 131.98318325 423.21243349 138.21935611 C423.23170814 143.28878103 423.24915593 148.35820913 423.26537132 153.42764473 C423.31668375 169.41123172 423.37443796 185.39478273 423.43707331 201.37832917 C423.48612373 213.96103147 423.52500184 226.54374219 423.55930791 239.12649255 C423.59477237 252.09421875 423.63756245 265.06190263 423.68806332 278.02957922 C423.71620081 285.29146742 423.74138866 292.55333716 423.75872231 299.81525993 C423.77505577 306.62892397 423.80160597 313.44247369 423.83503342 320.25607872 C423.84569325 322.75338277 423.85300381 325.25070373 423.85669899 327.7480278 C423.86227428 331.15937421 423.88000232 334.57045209 423.90074158 337.98173523 C423.89948896 338.96635913 423.89823635 339.95098304 423.89694577 340.96544403 C424.01702703 354.67499216 428.77492506 363.7108433 435.69766235 375.28826904 C439.18933383 381.47430119 439.19872976 388.66741542 437.57266235 395.50311279 C435.29585402 401.40074846 431.61985989 404.80076488 426.1859436 407.92498779 C423.06227683 408.96621005 420.86843135 409.05411794 417.5921936 409.05780029 C416.4784436 409.05908936 415.3646936 409.06037842 414.2171936 409.06170654 C413.0518811 409.05783936 411.8865686 409.05397217 410.6859436 409.04998779 C408.9843811 409.05578857 408.9843811 409.05578857 407.2484436 409.06170654 C401.06455593 409.05461493 394.9952895 408.80519222 388.84414673 408.17889404 C384.29963715 407.74481157 379.74610453 407.55498137 375.1859436 407.36248779 C374.20424194 407.3200293 373.22254028 407.2775708 372.21109009 407.23382568 C362.86693628 406.85951727 353.53574966 406.82679846 344.1859436 406.92498779 C344.98387329 407.69971436 345.78180298 408.47444092 346.60391235 409.27264404 C349.97703032 412.73761696 350.84184292 415.27330451 351.8109436 419.92498779 C351.1859436 422.92498779 351.1859436 422.92498779 349.3968811 424.41717529 C347.36564425 425.68759552 345.32441374 426.84620598 343.1859436 427.92498779 C343.5468811 428.71002686 343.9078186 429.49506592 344.2796936 430.30389404 C344.7437561 431.35447998 345.2078186 432.40506592 345.6859436 433.48748779 C346.1500061 434.52002686 346.6140686 435.55256592 347.0921936 436.61639404 C348.80470771 441.79674922 349.01096733 445.28274198 346.53359985 450.21405029 C345.78813902 451.33699342 345.02551052 452.44867942 344.2484436 453.54998779 C343.8474646 454.14754883 343.4464856 454.74510986 343.03335571 455.36077881 C340.95792345 458.43532861 338.81075701 461.45744819 336.6546936 464.47576904 C336.25113647 465.04537354 335.84757935 465.61497803 335.43179321 466.20184326 C334.31176051 467.77363251 333.17320284 469.33217313 332.03359985 470.88983154 C328.26901938 477.07393096 327.72057671 482.04903544 329.1859436 488.92498779 C330.6942666 492.02101921 331.56913115 492.70469763 334.8109436 493.86248779 C347.09253204 494.08992462 359.23201105 484.28951879 367.7328186 476.13983154 C369.1859436 474.92498779 369.1859436 474.92498779 371.1859436 474.92498779 C371.4953186 473.74936279 371.8046936 472.57373779 372.1234436 471.36248779 C377.29189729 455.97788499 391.86192042 433.73169765 406.1859436 425.92498779 C410.66941825 424.28104709 415.47584005 424.39295558 419.9984436 425.79998779 C422.1859436 426.92498779 422.1859436 426.92498779 424.1859436 428.92498779 C425.00914625 433.86420367 423.54555445 436.75672528 420.86172485 440.72576904 C416.26963806 446.75221395 411.03002162 452.13606512 405.5609436 457.36248779 C399.27249928 463.59577032 393.3895716 470.76172801 393.1859436 479.92498779 C398.84680702 479.70684277 401.91913896 475.89509889 405.7484436 472.17498779 C406.73747681 471.24299561 406.73747681 471.24299561 407.74649048 470.29217529 C410.5486211 467.62240662 413.11783429 465.01094879 415.52578735 461.97186279 C416.3475647 460.95865967 416.3475647 460.95865967 417.1859436 459.92498779 C417.8459436 459.92498779 418.5059436 459.92498779 419.1859436 459.92498779 C419.1859436 459.26498779 419.1859436 458.60498779 419.1859436 457.92498779 C421.5609436 455.29998779 421.5609436 455.29998779 424.1859436 452.92498779 C424.8459436 452.92498779 425.5059436 452.92498779 426.1859436 452.92498779 C426.39606079 452.37971436 426.60617798 451.83444092 426.82266235 451.27264404 C428.6861355 448.06362581 431.26491549 445.81469362 433.9984436 443.36248779 C434.57304321 442.84090088 435.14764282 442.31931396 435.73965454 441.78192139 C461.88426003 418.19200108 461.88426003 418.19200108 474.1859436 417.92498779 C477.9242316 419.05982522 479.50680634 420.15529889 482.0609436 423.04998779 C484.30021648 428.77257404 484.04198876 432.68590272 481.88516235 438.32733154 C473.69967265 456.28026257 461.18562751 472.38693555 449.1859436 487.92498779 C453.16586152 484.53289069 457.12004551 481.12088538 460.9984436 477.61248779 C461.84149048 476.85322998 462.68453735 476.09397217 463.5531311 475.31170654 C465.35714455 473.6763175 467.15367479 472.03264643 468.9437561 470.38201904 C469.82805298 469.57119873 470.71234985 468.76037842 471.6234436 467.92498779 C472.42652954 467.18248779 473.22961548 466.43998779 474.05703735 465.67498779 C476.1859436 463.92498779 476.1859436 463.92498779 479.1859436 462.92498779 C479.5159436 461.93498779 479.8459436 460.94498779 480.1859436 459.92498779 C481.5062561 458.59295654 481.5062561 458.59295654 483.3109436 457.11248779 C487.51071609 453.56115415 491.50281703 449.82631158 495.4984436 446.04998779 C500.78056689 441.08054418 506.14544054 436.3438769 511.82266235 431.82733154 C513.95320101 430.11233597 515.97495231 428.32582302 517.9984436 426.48748779 C520.83193504 424.01673801 523.49623135 422.82491761 527.1859436 421.92498779 C533.11974189 426.8698197 535.51241445 433.01851872 536.8109436 440.54998779 C535.52711196 447.48267869 530.09443756 452.03880029 525.4359436 457.04998779 C521.55891275 461.26185313 518.0383784 465.5974524 514.6859436 470.23748779 C514.26474243 470.81192627 513.84354126 471.38636475 513.40957642 471.97821045 C510.06955812 476.69827726 507.57265921 481.27935776 508.3734436 487.17498779 C508.78109379 491.15755408 508.78109379 491.15755408 512.1859436 492.92498779 C519.13704578 493.62009801 523.34994887 491.87737944 528.86904907 487.62957764 C530.52014694 486.25390955 532.13943627 484.84960949 533.7484436 483.42498779 C537.73368586 479.9217928 541.70730892 476.78053833 546.1859436 473.92498779 C547.39953328 484.03823509 547.39953328 484.03823509 544.6859436 488.25701904 C542.61708584 490.30567312 540.47276132 492.12397073 538.1859436 493.92498779 C536.95330636 495.02527873 535.72410287 496.12942909 534.4984436 497.23748779 C533.06162418 498.46744994 531.62403668 499.69651506 530.1859436 500.92498779 C528.76668579 502.17795654 528.76668579 502.17795654 527.3187561 503.45623779 C521.57810291 508.48221634 515.69896583 513.1515022 509.3734436 517.42498779 C508.77588257 517.83402344 508.17832153 518.24305908 507.56265259 518.66448975 C500.77471881 523.13582476 494.37923072 525.73088489 486.1859436 524.92498779 C482.75454231 523.55242728 481.47184319 522.33904927 479.3734436 519.29998779 C475.85005885 509.28615743 479.79409129 500.12674569 484.1288147 490.92303467 C489.74695911 479.50683437 496.44307111 468.70098028 503.1859436 457.92498779 C501.92304254 458.8499908 500.66323453 459.77921741 499.4046936 460.71014404 C498.70279907 461.22713867 498.00090454 461.7441333 497.27774048 462.27679443 C494.61464265 464.375134 492.30873414 466.71860954 489.95547485 469.15155029 C488.1645616 470.94641699 486.30146341 472.59152299 484.3734436 474.23748779 C475.73523194 481.23368066 475.73523194 481.23368066 469.1859436 489.92498779 C468.5259436 489.92498779 467.8659436 489.92498779 467.1859436 489.92498779 C466.97324829 490.45608154 466.76055298 490.98717529 466.54141235 491.53436279 C464.66356364 494.84630346 462.10603185 497.43493168 459.4984436 500.17498779 C458.40630719 501.33551472 457.31515674 502.49697031 456.2250061 503.65936279 C455.69939087 504.21946045 455.17377563 504.77955811 454.63223267 505.35662842 C452.81518997 507.32703393 451.09223072 509.36872193 449.3734436 511.42498779 C444.81293949 516.69911602 439.8877481 520.58846011 432.7484436 521.23748779 C429.1859436 520.92498779 429.1859436 520.92498779 426.8109436 519.11248779 C423.78512713 515.03927331 423.52165454 510.8231192 424.1859436 505.92498779 C428.4130252 491.72922715 437.05749309 477.6483411 444.97134399 465.23602295 C446.25993499 462.78420337 446.77801859 460.65232683 447.1859436 457.92498779 C443.76647436 457.50827828 442.47161361 457.72180609 439.6156311 459.75311279 C438.35106079 460.95194092 438.35106079 460.95194092 437.0609436 462.17498779 C436.21274048 462.96389404 435.36453735 463.75280029 434.4906311 464.56561279 C432.17903579 466.82052975 432.17903579 466.82052975 430.5062561 469.22186279 C430.07055298 469.78389404 429.63484985 470.34592529 429.1859436 470.92498779 C428.5259436 470.92498779 427.8659436 470.92498779 427.1859436 470.92498779 C426.91443481 471.52085693 426.64292603 472.11672607 426.3631897 472.73065186 C425.20651899 474.88663615 424.06057831 476.30338066 422.3500061 478.03436279 C421.78628296 478.61597168 421.22255981 479.19758057 420.64175415 479.79681396 C420.03758667 480.41661133 419.43341919 481.03640869 418.8109436 481.67498779 C412.09627934 488.71034727 406.2489349 496.16059645 400.55557251 504.03240967 C398.41329313 506.99265026 396.24040621 509.92957553 394.0609436 512.86248779 C393.35711548 513.82026123 392.65328735 514.77803467 391.9281311 515.76483154 C389.73265238 518.48702826 388.83339562 518.83866086 385.3734436 519.29998779 C380.97963743 518.78306942 379.92553009 517.36703235 377.1859436 513.92498779 C372.98698353 508.38036693 371.619448 502.83193341 370.5375061 496.09686279 C370.4051355 495.309729 370.27276489 494.52259521 370.13638306 493.71160889 C369.81313195 491.78380365 369.4986481 489.85453184 369.1859436 487.92498779 C368.50193481 488.62994385 367.81792603 489.3348999 367.1131897 490.06121826 C364.51097692 492.73721594 361.8944072 495.398814 359.27383423 498.05682373 C358.15316438 499.19730017 357.03614206 500.3413752 355.92324829 501.48944092 C331.22837354 526.94347095 331.22837354 526.94347095 315.2953186 528.01483154 C311.85596267 527.86834046 309.91227248 527.00219074 307.1859436 524.92498779 C302.65235914 517.82237213 303.3625197 509.6151161 305.01797485 501.61639404 C306.5078976 494.98734863 308.29276633 488.44877433 310.1859436 481.92498779 C308.6108752 483.60084761 307.03631336 485.27717948 305.46231079 486.95404053 C304.0991267 488.40607794 302.7351807 489.85740041 301.37051392 491.30804443 C298.18450944 494.70052164 295.01107017 498.09991655 291.9046936 501.56561279 C275.12877418 520.24807187 275.12877418 520.24807187 265.1859436 522.92498779 C260.53884235 523.09095569 257.98110135 522.1198463 254.6234436 519.04998779 C250.5112377 514.52287322 247.74537939 509.44953363 245.1859436 503.92498779 C244.56139282 502.58500732 244.56139282 502.58500732 243.92422485 501.21795654 C241.39681164 494.87725323 240.80980608 488.92747182 240.7484436 482.17498779 C240.73829224 481.38285889 240.72814087 480.59072998 240.71768188 479.77459717 C240.85699576 470.39543783 244.28463072 464.00656325 250.1859436 456.92498779 C250.7737561 456.20311279 251.3615686 455.48123779 251.9671936 454.73748779 C257.11003316 448.66725094 262.9466759 443.82852495 269.1859436 438.92498779 C269.97742798 438.26756592 270.76891235 437.61014404 271.5843811 436.93280029 C286.65408472 424.46650062 304.31632044 413.52541558 323.1859436 407.92498779 C314.25427849 407.69759038 305.56957107 407.98389118 296.6859436 408.92498779 C270.73473426 411.5827837 270.73473426 411.5827837 263.72891235 407.19061279 C258.16540754 402.62713036 255.88123016 397.65665237 254.5687561 390.61248779 C253.81738939 379.86566699 257.14166533 372.92835405 262.74111938 363.81561279 C263.27720825 362.93647217 263.81329712 362.05733154 264.3656311 361.15155029 C264.85789185 360.38407471 265.35015259 359.61659912 265.85733032 358.8258667 C269.49689578 350.87928148 269.49160591 342.19733732 269.5206604 333.60638428 C269.53231232 332.4165947 269.54396423 331.22680511 269.55596924 330.0009613 C269.58558083 326.77018396 269.60671151 323.53949531 269.62359214 320.3086307 C269.64307839 316.91914842 269.6727502 313.52975325 269.70103455 310.14033508 C269.746918 304.46075604 269.78537878 298.78116563 269.81900024 293.10150146 C269.8579599 286.53017209 269.90726324 279.95898392 269.96233052 273.38777107 C270.01527185 267.05744101 270.06247614 260.72708257 270.10651588 254.39668465 C270.12526054 251.70409731 270.14576138 249.01153171 270.16760826 246.31896782 C270.19660595 242.57233686 270.21900195 238.82572679 270.2394104 235.07904053 C270.24921432 233.95755615 270.25901825 232.83607178 270.26911926 231.68060303 C270.27326843 230.66715317 270.2774176 229.65370331 270.2816925 228.60954285 C270.29024025 227.28090289 270.29024025 227.28090289 270.29896069 225.92542171 C270.40877784 223.92579014 270.40877784 223.92579014 269.1859436 222.92498779 C266.40149783 222.17115442 266.40149783 222.17115442 263.1859436 222.92498779 C257.1757141 228.40908354 254.21321327 236.84509754 250.98364258 244.13818359 C249.61261071 247.23359074 248.21909078 250.31872891 246.82743835 253.40490723 C246.08618407 255.04945777 245.34608032 256.69452734 244.60707092 258.34008789 C240.44018324 267.61272978 236.15928929 276.831878 231.8734436 286.04998779 C230.27926492 289.47947627 228.68545971 292.90913775 227.0921936 296.33905029 C226.69354095 297.19702713 226.29488831 298.05500397 225.88415527 298.9389801 C223.33171647 304.43836856 220.79813169 309.94609219 218.27693176 315.45986938 C216.55994949 319.21380654 214.83741853 322.9651861 213.11456299 326.71643066 C212.29749735 328.49955401 211.48311396 330.28390925 210.67163086 332.06958008 C197.76464355 360.4642106 197.76464355 360.4642106 185.3109436 365.86248779 C178.59717676 368.00349218 171.66345788 367.65236222 165.1859436 364.92498779 C165.5159436 365.58498779 165.8459436 366.24498779 166.1859436 366.92498779 C167.43969611 384.29841541 164.83765064 398.70675413 154.1859436 412.92498779 C153.49565063 413.88791748 153.49565063 413.88791748 152.79141235 414.87030029 C131.55123411 442.17035647 83.49823246 445.50736692 51.74807739 449.61645508 C38.61226718 451.19827224 25.38589449 452.07360134 12.1859436 452.92498779 C15.27063108 454.98144611 18.01459363 456.06132528 21.49453735 457.32342529 C22.79789468 457.80092244 24.10111115 458.27880422 25.40420532 458.75701904 C26.09125549 459.00790283 26.77830566 459.25878662 27.48617554 459.51727295 C43.6384622 465.43259762 59.47225181 471.91826393 75.1859436 478.92498779 C76.33417603 479.43593994 77.48240845 479.94689209 78.66543579 480.47332764 C91.82936894 486.36109521 104.92700095 492.29206123 117.1859436 499.92498779 C117.99418579 500.40838623 118.80242798 500.89178467 119.63516235 501.38983154 C123.69152854 504.22846508 124.69193161 506.8323592 125.6234436 511.67498779 C125.85612292 513.75376011 126.04539417 515.83796123 126.1859436 517.92498779 C126.27295532 519.18375732 126.27295532 519.18375732 126.36172485 520.46795654 C126.5969091 528.05574299 126.45512342 537.52121807 122.1859436 543.92498779 C115.35287377 545.11334776 110.47868986 541.90507588 104.6234436 538.67498779 C103.61765259 538.13575684 102.61186157 537.59652588 101.57559204 537.04095459 C98.43622959 535.35243237 95.30938673 533.64275864 92.1859436 531.92498779 C91.22510864 531.3966333 90.26427368 530.86827881 89.27432251 530.32391357 C88.34410278 529.81199463 87.41388306 529.30007568 86.45547485 528.77264404 C84.61577163 527.76066978 82.7759296 526.74894783 80.9359436 525.73748779 C80.0301355 525.23862061 79.12432739 524.73975342 78.19107056 524.22576904 C71.64348875 520.64740523 65.00690279 517.33418234 58.22793579 514.21722412 C52.72785829 511.68813632 47.31164847 509.00431802 41.9019928 506.28869629 C33.49917274 502.07260956 25.06815319 497.91451353 16.62661743 493.77655029 C14.76674598 492.86351949 12.90804895 491.94809302 11.05044556 491.03045654 C8.33140252 489.68760249 5.60874291 488.35235975 2.88516235 487.01873779 C2.05401413 486.60635864 1.22286591 486.19397949 0.36653137 485.769104 C-0.4024498 485.3945105 -1.17143097 485.01991699 -1.9637146 484.63397217 C-2.63715408 484.30280396 -3.31059357 483.97163574 -4.00444031 483.63043213 C-5.95620084 482.74338352 -5.95620084 482.74338352 -8.8140564 482.92498779 C-10.63317357 484.96605681 -10.63317357 484.96605681 -12.3609314 487.68280029 C-13.37667236 489.20091309 -13.37667236 489.20091309 -14.41293335 490.74969482 C-15.47773926 492.38333984 -15.47773926 492.38333984 -16.5640564 494.04998779 C-17.2861731 495.14552979 -18.00828979 496.24107178 -18.75228882 497.36981201 C-23.72318313 505.00580057 -28.07894176 512.6221633 -31.8140564 520.92498779 C-33.67987731 524.98378725 -35.50855971 528.03161752 -38.6890564 531.17498779 C-39.67518921 532.17272217 -39.67518921 532.17272217 -40.6812439 533.19061279 C-43.59278845 535.55824243 -46.19143225 536.88990403 -49.98202515 536.97186279 C-55.59183417 536.14721002 -55.59183417 536.14721002 -57.8140564 533.92498779 C-58.5289875 527.83286209 -56.84388548 524.11763627 -53.9390564 518.98748779 C-53.53267944 518.24877441 -53.12630249 517.51006104 -52.70761108 516.7489624 C-45.90705679 504.53320008 -38.34935856 493.00021369 -30.01620483 481.77484131 C-29.48414429 481.05481934 -28.95208374 480.33479736 -28.40390015 479.59295654 C-27.92815552 478.95640137 -27.45241089 478.31984619 -26.96224976 477.66400146 C-25.63348841 475.81465055 -25.63348841 475.81465055 -24.8140564 472.92498779 C-25.5153064 472.84248779 -26.2165564 472.75998779 -26.9390564 472.67498779 C-30.65550429 471.70547965 -32.92912015 470.47446634 -35.8140564 467.92498779 C-37.24764195 462.63174883 -35.26424074 459.53049495 -32.6265564 454.86248779 C-24.22142522 441.33310159 -24.22142522 441.33310159 -16.81991577 439.40570068 C-14.51128039 438.95874522 -12.20220152 438.5849107 -9.8765564 438.23748779 C-9.0908728 438.10793701 -8.30518921 437.97838623 -7.49569702 437.84490967 C-3.22614434 437.1696415 0.84888631 436.77879485 5.1859436 436.92498779 C5.42184204 436.39905029 5.65774048 435.87311279 5.90078735 435.33123779 C7.58854811 432.1711751 9.65247838 429.32115833 11.7484436 426.42498779 C12.18591919 425.81638916 12.62339478 425.20779053 13.0741272 424.58074951 C17.36371698 418.63455439 21.75610033 412.76724486 26.1859436 406.92498779 C16.22086142 406.67516679 6.43144199 407.07400713 -3.5015564 407.92498779 C-11.98033385 408.62391069 -20.43044408 409.18362076 -28.9390564 409.29998779 C-29.82037231 409.32576904 -30.70168823 409.35155029 -31.60971069 409.37811279 C-38.09402153 409.39817835 -43.43523265 407.97111406 -48.34140015 403.54803467 C-53.68531203 397.6077732 -54.37707269 390.99351132 -54.26327515 383.30780029 C-53.41066868 376.88730287 -49.93020522 372.09921102 -46.4078064 366.81561279 C-40.45171413 357.73620385 -39.33191667 348.79781436 -39.13485718 338.0836792 C-39.10183407 336.74907266 -39.06839481 335.41447636 -39.03459358 334.0798893 C-38.55193096 313.09035382 -38.66843934 292.08465353 -38.67973089 271.09117079 C-38.6823036 264.79079111 -38.67990359 258.49041271 -38.67834473 252.19003296 C-38.6764224 240.94944558 -38.67948453 229.70886457 -38.68460406 218.46827872 C-38.68907173 208.34674816 -38.68829097 198.22522908 -38.6836853 188.10369873 C-38.6782932 176.2489266 -38.67636296 164.39415998 -38.67929757 152.53938639 C-38.68083931 146.3008863 -38.68111291 140.06239406 -38.67776108 133.8238945 C-38.61718227 102.7684614 -38.61718227 102.7684614 -39.19735718 71.72039795 C-39.22769987 70.61204779 -39.25804256 69.50369762 -39.28930473 68.36176109 C-39.59019802 60.40149904 -40.34530138 52.78957418 -44.38046265 45.77655029 C-44.86579468 44.91674561 -45.35112671 44.05694092 -45.85116577 43.17108154 C-46.35454468 42.30612061 -46.85792358 41.44115967 -47.3765564 40.54998779 C-48.37983133 38.79330055 -49.38122102 37.03553489 -50.38046265 35.27655029 C-50.82333618 34.51165283 -51.26620972 33.74675537 -51.72250366 32.9586792 C-54.88312781 27.07006387 -54.51081928 20.06375933 -53.4234314 13.60467529 C-51.6879855 7.93110219 -47.79867016 4.01946278 -42.8140564 0.92498779 C-29.61642457 -3.78622357 -13.75531696 -0.88947747 0 0 Z M83.46435165 225.21527863 C81.18983761 228.25715365 81.84168478 232.0711759 81.92129517 235.71990967 C81.92900436 236.61951416 81.93671356 237.51911865 81.94465637 238.44598389 C81.97399526 241.42893527 82.02505451 244.41109334 82.0765686 247.39373779 C82.10207823 249.47058704 82.12637332 251.54745153 82.14950562 253.62432861 C82.20113882 257.98579546 82.26263715 262.34696952 82.3319397 266.70819092 C82.42031178 272.27492327 82.492031 277.84169743 82.55722427 283.40874481 C82.62034231 288.73715545 82.69189525 294.06544341 82.7640686 299.39373779 C82.77702217 300.40073227 82.78997574 301.40772675 82.80332184 302.44523621 C82.95510426 317.21462041 82.95510426 317.21462041 84.1859436 331.92498779 C84.96494019 331.99491943 85.74393677 332.06485107 86.54653931 332.13690186 C125.62352499 335.71682454 125.62352499 335.71682454 142.61953735 342.87420654 C144.8216351 343.77582647 146.88004116 344.38056836 149.1859436 344.92498779 C143.90352073 331.83861642 138.25622903 318.93324932 132.4984436 306.04998779 C131.6036742 304.04309526 130.7091453 302.03609548 129.81484985 300.0289917 C128.06157262 296.09473569 126.30717359 292.16098358 124.55166626 288.22772217 C122.06555934 282.65672379 119.58620995 277.08275459 117.11074829 271.50701904 C116.1744049 269.39944419 115.23630612 267.29264817 114.29629517 265.18670654 C112.10014275 260.26304915 109.92395633 255.33239483 107.79315186 250.3800354 C106.97858913 248.48924713 106.15919493 246.60062668 105.33828735 244.71258545 C104.30903774 242.34145481 103.28889148 239.9663431 102.2796936 237.58660889 C98.97263745 229.82449763 98.97263745 229.82449763 93.1859436 223.92498779 C89.81757339 222.98727301 86.35257182 223.05062863 83.46435165 225.21527863 Z M93.1859436 369.92498779 C93.46309204 370.45608154 93.74024048 370.98717529 94.02578735 371.53436279 C94.5691272 372.59397217 94.5691272 372.59397217 95.1234436 373.67498779 C95.66291626 374.71912842 95.66291626 374.71912842 96.21328735 375.78436279 C99.20263883 382.36333712 99.27080734 390.46240942 97.0609436 397.29998779 C94.929083 402.18425057 91.59080914 404.82067354 86.74453735 407.04608154 C81.51324036 408.33811428 76.42751176 408.17289348 71.0609436 408.11248779 C69.99617798 408.11184326 68.93141235 408.11119873 67.8343811 408.11053467 C59.09262753 408.06279451 59.09262753 408.06279451 54.92837524 407.42987061 C49.3470946 406.39258419 49.3470946 406.39258419 44.23379517 408.19818115 C42.52641126 410.13424185 41.20670842 412.09046687 39.8734436 414.29998779 C38.88301788 415.77685868 37.89213461 417.25342283 36.90078735 418.72967529 C36.43914185 419.44993896 35.97749634 420.17020264 35.50186157 420.91229248 C33.78810556 423.53348071 31.89001052 425.97945536 29.9359436 428.42498779 C29.39453735 429.11592529 28.8531311 429.80686279 28.2953186 430.51873779 C27.92922485 430.98280029 27.5631311 431.44686279 27.1859436 431.92498779 C30.5604482 433.61224009 34.16887284 432.08894571 37.7328186 431.33514404 C39.03894608 431.06598175 39.03894608 431.06598175 40.37145996 430.79138184 C43.22818246 430.19876639 46.08220432 429.59429694 48.9359436 428.98748779 C49.90634583 428.78279877 50.87674805 428.57810974 51.8765564 428.36721802 C103.0704696 419.70855526 103.0704696 419.70855526 145.1859436 392.48748779 C146.60275698 388.85690352 147.1039429 385.75257809 146.1859436 381.92498779 C138.29506855 372.54124448 122.75406026 371.01448648 111.1859436 369.92498779 C105.18311144 369.63425233 99.19031451 369.73335893 93.1859436 369.92498779 Z M273.1859436 464.92498779 C272.49371704 465.50506592 271.80149048 466.08514404 271.08828735 466.68280029 C265.70998432 471.59292833 261.80523994 477.53093282 260.77578735 484.83514404 C260.61740818 489.9514801 260.79150772 493.82337776 264.1859436 497.92498779 C277.55017246 497.62800493 288.47928487 484.86076912 297.1859436 475.92498779 C297.7428186 475.40162842 298.2996936 474.87826904 298.8734436 474.33905029 C304.83689318 468.64010856 309.78315117 462.28345978 314.78359985 455.75067139 C316.15689426 453.96280655 317.54398191 452.18662425 318.9359436 450.41326904 C323.35250085 444.76701006 327.54498326 439.11462038 331.1859436 432.92498779 C314.06119859 432.92498779 286.07325317 454.04801387 273.1859436 464.92498779 Z " fill="#0B9BE2" transform="translate(1213.8140563964844,17.07501220703125)"/>
<path d="M0 0 C5.85595607 1.62442081 11.13168014 2.79540429 17.16015625 1.39453125 C20.29476108 -0.64337111 22.89917815 -2.84948068 25.58984375 -5.44140625 C32.06197689 -10.89058826 40.13667638 -10.19300046 48.16015625 -9.60546875 C53.56089783 -8.51509821 58.73226045 -6.01294724 62.16015625 -1.60546875 C65.94656693 6.02568427 66.98760003 13.9705197 67.82702637 22.35513306 C70.88014108 52.27162825 78.23128255 81.90891221 89.71484375 109.72265625 C92.71870388 117.35408468 95.32852388 125.67352559 92.28515625 133.703125 C89.31876141 138.86504234 85.09657162 142.95088006 79.4453125 145.0234375 C71.04814126 146.38708069 64.11798299 144.24125173 56.09765625 141.83203125 C54.85685303 141.46996582 53.6160498 141.10790039 52.33764648 140.73486328 C46.61525722 139.05631532 40.91134286 137.32972655 35.23046875 135.515625 C-10.36670015 120.99995786 -74.25440292 106.01683214 -119.33984375 128.95703125 C-136.3246625 138.10203799 -146.60548544 152.93672026 -152.23779297 171.22167969 C-159.28492244 196.65535863 -157.77610062 226.70803709 -145.83984375 250.39453125 C-137.10850995 264.68564216 -125.24655038 273.52256817 -109.0546875 277.87109375 C-93.76148279 281.48536082 -74.83720868 280.482444 -61.17578125 272.11328125 C-53.92194582 266.77601103 -49.590282 260.27175382 -47.83984375 251.39453125 C-46.83878489 241.20450752 -46.63768528 230.67794745 -52.49609375 221.91796875 C-55.32315855 218.87416232 -58.42401718 217.15903924 -62.08984375 215.33203125 C-62.75935059 214.98479004 -63.42885742 214.63754883 -64.11865234 214.27978516 C-67.5297689 212.51912869 -70.97455666 210.86757457 -74.46484375 209.26953125 C-78.6764284 206.929762 -81.9281115 204.25167944 -83.453125 199.47265625 C-84.97657952 191.28601178 -83.44743221 184.58529842 -79.08984375 177.58203125 C-72.48748478 171.16307114 -64.56482733 171.96630182 -55.89331055 172.00634766 C-54.47994584 172.00227787 -53.06658431 171.9969337 -51.65322876 171.99041748 C-47.82863375 171.97678264 -44.00428252 171.98202757 -40.17968345 171.99155474 C-36.16582846 171.99917574 -32.15199367 171.99209855 -28.13813782 171.98739624 C-21.39552078 171.98194389 -14.65300243 171.98911463 -7.91040039 172.00341797 C-0.13451096 172.01972364 7.64114221 172.0144691 15.41702586 171.99793875 C22.10943274 171.98428524 28.80176883 171.98242364 35.49418515 171.99025476 C39.48396399 171.99491266 43.47363214 171.99560873 47.4634037 171.98564529 C51.21868836 171.97692215 54.97367141 171.98309407 58.7289238 172.00032806 C60.74988653 172.00613073 62.77087503 171.99732178 64.79182434 171.98794556 C73.24509609 172.04638408 81.32417448 172.35771235 88.16015625 177.76953125 C92.50357818 183.47027254 92.44047698 188.47694397 92.34765625 195.39453125 C92.34701172 196.2453125 92.34636719 197.09609375 92.34570312 197.97265625 C92.31004547 203.51940236 92.08576925 209.04610271 91.79496765 214.58410645 C91.16200908 226.69491329 91.0013636 238.76868571 91.03515625 250.89453125 C91.03670715 251.89211456 91.03825806 252.88969788 91.03985596 253.91751099 C91.10705435 294.03766923 91.10705435 294.03766923 95.28515625 333.89453125 C96.89957856 344.56263388 98.18141521 355.82121328 91.9765625 365.1796875 C85.27008027 373.82402012 75.03749699 378.78336659 65.34765625 383.33203125 C64.25163086 383.84926758 63.15560547 384.36650391 62.02636719 384.89941406 C-13.33464954 419.9921854 -113.79945195 426.69233476 -192.49682617 398.27539062 C-217.75926983 388.7375554 -240.16901292 376.03778137 -259.83984375 357.39453125 C-260.3306543 356.94158691 -260.82146484 356.48864258 -261.32714844 356.02197266 C-301.56214025 318.75760174 -316.35603528 262.50113304 -318.52661133 209.41796875 C-320.68335291 153.04797756 -309.31174356 98.66945242 -272.83984375 54.39453125 C-271.97552734 53.31558594 -271.97552734 53.31558594 -271.09375 52.21484375 C-268.0268358 48.47470448 -264.63562587 45.31788535 -260.9453125 42.1953125 C-259.56623556 41.01580514 -258.21293589 39.80531324 -256.890625 38.5625 C-249.83137627 31.96042166 -241.89373878 26.69121757 -233.83984375 21.39453125 C-232.96328125 20.81574219 -232.08671875 20.23695312 -231.18359375 19.640625 C-165.83098371 -21.42856658 -72.0059479 -20.19664216 0 0 Z " fill="#0B9CE3" transform="translate(1018.83984375,20.60546875)"/>
<path d="M0 0 C0.82258301 0.00008057 1.64516602 0.00016113 2.49267578 0.00024414 C11.8560993 0.08225827 21.15328624 0.91192594 30.48046875 1.67578125 C64.33010499 4.43337886 98.13437508 3.32004946 131.9453125 0.63671875 C154.61587519 -1.14063927 154.61587519 -1.14063927 161.875 3.1875 C166.78078935 7.48802963 169.32859093 12.07040128 170.45703125 18.5078125 C171.14067723 29.79376478 167.55577666 36.63905804 161.4765625 46.0078125 C156.06262269 54.43074727 155.72411878 63.41271442 155.72973633 73.15209961 C155.72642587 74.0157312 155.72311541 74.87936279 155.71970463 75.76916504 C155.71033997 78.62607099 155.70838654 81.48292353 155.70703125 84.33984375 C155.70308294 86.37179095 155.69893844 88.40373778 155.6946106 90.4356842 C155.68526644 95.87383827 155.68422534 101.31196133 155.68632126 106.75012207 C155.68750028 110.12581482 155.68696906 113.50150443 155.68630981 116.87719727 C155.6878675 154.02157222 156.36757604 191.07389325 157.875 228.1875 C158.50008445 243.60525285 159.08074924 259.01028404 159.11523438 274.44238281 C159.12178498 276.19991076 159.13554404 277.95742557 159.15625 279.71484375 C159.5734174 315.22621836 152.04362076 351.25117364 126.62109375 377.44140625 C118.65800739 385.40449261 110.71488397 391.64224165 100.875 397.1875 C99.96492188 397.71085937 99.05484375 398.23421875 98.1171875 398.7734375 C55.95526573 421.47601076 -2.17017987 420.86865834 -47.53125 409.3203125 C-62.71439704 404.70822751 -77.34691552 397.54302505 -85.125 383.1875 C-86.52576598 378.5709938 -86.31578687 373.97195622 -86.3125 369.1875 C-86.31314453 368.20998779 -86.31378906 367.23247559 -86.31445312 366.2253418 C-86.26854408 359.75894784 -85.85907649 353.42205511 -85.125 347 C-83.3883432 331.49446074 -84.08683164 316.4062476 -85.41308594 300.87670898 C-87.35345584 277.69066971 -87.35345584 277.69066971 -83.125 271.1875 C-78.60415065 266.25391918 -75.0445404 263.47136644 -68.3203125 262.984375 C-67.30710937 262.96890625 -66.29390625 262.9534375 -65.25 262.9375 C-64.24195313 262.91171875 -63.23390625 262.8859375 -62.1953125 262.859375 C-54.62743996 263.66815527 -49.77365412 268.89919921 -44.42382812 273.8046875 C-38.31890053 279.2403041 -32.86658963 281.76288932 -24.55078125 281.47265625 C-19.64964325 280.89651603 -16.22918632 279.04073488 -12.375 276.0625 C-5.26446857 266.97682095 -6.1036006 254.61042848 -7.43339157 243.6443615 C-7.68968474 241.89356997 -7.94938375 240.14327448 -8.21203804 238.39342594 C-10.45697599 223.17697755 -10.50614499 208.04992639 -10.39625025 192.71111989 C-10.37324578 188.98602553 -10.36901395 185.26090479 -10.36276245 181.53575134 C-10.34841899 174.49369019 -10.31963348 167.45177674 -10.28451526 160.40979141 C-10.22224397 147.83664994 -10.18450096 135.26342422 -10.15292251 122.69017214 C-10.14133411 118.305639 -10.12316007 113.92119934 -10.0995754 109.53671521 C-10.03132905 96.46386317 -10.0310579 83.39399683 -10.43701172 70.32592773 C-10.45951052 69.339264 -10.48200932 68.35260027 -10.5051899 67.33603764 C-10.85912664 58.07643754 -12.97174438 50.27286352 -18.125 42.5625 C-24.09098545 33.17484642 -26.9672418 25.72322032 -24.5390625 14.47265625 C-22.56008891 8.43587902 -19.74025927 5.50802487 -14.34375 2.24609375 C-9.63234692 -0.00177638 -5.15981022 -0.00484439 0 0 Z " fill="#0B9BE2" transform="translate(1768.125,15.8125)"/>
<path d="M0 0 C0.71183813 -0.00297112 1.42367626 -0.00594224 2.15708524 -0.0090034 C4.5366457 -0.01765831 6.91615566 -0.01919593 9.29573059 -0.02069092 C11.00436001 -0.02532141 12.7129884 -0.03034638 14.4216156 -0.03573608 C19.06027239 -0.04884083 23.69891472 -0.05530142 28.33758712 -0.05974674 C31.23812475 -0.06268089 34.13865846 -0.06678638 37.03919411 -0.07125092 C46.12144839 -0.08492148 55.20369366 -0.09459 64.28595752 -0.09845281 C74.7566081 -0.10293102 85.22712798 -0.12046981 95.69773883 -0.1494534 C103.79984241 -0.17109921 111.90190931 -0.18115865 120.00404149 -0.18249393 C124.83893921 -0.18353998 129.67371399 -0.18940511 134.50858116 -0.20731354 C139.05994567 -0.22384413 143.61109549 -0.22592559 148.1624794 -0.21717453 C149.82728591 -0.21640679 151.4921042 -0.22071196 153.15688133 -0.23063278 C168.21533003 -0.31506306 179.06202477 1.9724484 190.50984192 12.26544189 C202.04512463 24.47138058 202.12692234 40.49114752 202.08113098 56.29107666 C202.0838472 57.88089151 202.08741164 59.47070511 202.0917511 61.06051636 C202.10080169 65.34349749 202.09736157 69.62638134 202.09099293 73.90936399 C202.08589558 78.41119204 202.09063461 82.91301229 202.09376526 87.4148407 C202.09739371 94.97076905 202.09263493 102.52665818 202.08308411 110.08258057 C202.07219778 118.7951991 202.07573096 127.50772403 202.08673692 136.22034031 C202.09583712 143.7272819 202.09708186 151.23419545 202.09185958 158.74114078 C202.08875538 163.21319578 202.08828771 167.68520688 202.09493256 172.15725899 C202.10074544 176.36233108 202.09663761 180.56728341 202.08514404 184.77234268 C202.08251859 186.30772262 202.08322599 187.84311279 202.08766937 189.37848854 C202.11595543 200.15268114 202.09596781 210.77840329 196.94734192 220.51544189 C196.45492004 221.47192627 195.96249817 222.42841064 195.45515442 223.41387939 C190.14654395 232.27849688 182.50560801 237.75042953 172.82234192 241.14044189 C168.72161993 242.15059491 164.86168159 242.27102911 160.64468384 242.28088379 C159.93284571 242.28385491 159.22100758 242.28682603 158.4875986 242.28988719 C156.10803814 242.2985421 153.72852818 242.30007972 151.34895325 242.30157471 C149.64032383 242.30620519 147.93169543 242.31123017 146.22306824 242.31661987 C141.58441145 242.32972462 136.94576912 242.33618521 132.30709672 242.34063053 C129.40655909 242.34356468 126.50602538 242.34767016 123.60548973 242.3521347 C114.52323545 242.36580527 105.44099018 242.37547379 96.35872632 242.3793366 C85.88807574 242.38381481 75.41755586 242.4013536 64.94694501 242.43033719 C56.84484142 242.45198299 48.74277453 242.46204244 40.64064234 242.46337771 C35.80574463 242.46442377 30.97096985 242.4702889 26.13610268 242.48819733 C21.58473817 242.50472792 17.03358835 242.50680938 12.48220444 242.49805832 C10.81739793 242.49729058 9.15257963 242.50159575 7.48780251 242.51151657 C-7.59308211 242.59607264 -18.60748555 240.36572669 -29.92765808 229.82794189 C-37.20803677 222.17594295 -40.42157534 213.15599492 -40.43835449 202.64634705 C-40.44218004 201.92463296 -40.44600559 201.20291888 -40.44994706 200.45933467 C-40.46020668 198.05828371 -40.4562984 195.65747503 -40.45231628 193.25640869 C-40.45666671 191.52777893 -40.46185097 189.7991511 -40.46780396 188.07052612 C-40.48117095 183.38651247 -40.48177508 178.70257963 -40.47924066 174.01855063 C-40.47816918 170.10225809 -40.48305893 166.18598178 -40.48784608 162.26969272 C-40.49893374 153.02615726 -40.49938311 143.78266243 -40.49333191 134.53912354 C-40.48729473 125.01824671 -40.49959834 115.49751776 -40.52090198 105.97666615 C-40.53854443 97.7895904 -40.54451509 89.60256161 -40.54126424 81.41546756 C-40.53945514 76.53142545 -40.54205007 71.64748879 -40.55597878 66.76346397 C-40.56859521 62.1677385 -40.56657704 57.57224266 -40.55356789 52.97652054 C-40.55121069 51.29559182 -40.55390589 49.61464675 -40.56219101 47.9337368 C-40.63069735 32.94721581 -38.64754967 22.10492569 -28.03703308 10.87481689 C-19.68761265 2.9924969 -11.39409872 0.0266268 0 0 Z " fill="#5EA272" transform="translate(266.1776580810547,20.85955810546875)"/>
<path d="M0 0 C6.26329004 5.51309096 12.74925587 14.54923667 13.34375 22.9921875 C13.37826672 24.55694568 13.38755504 26.12241153 13.375 27.6875 C13.36927979 28.51958984 13.36355957 29.35167969 13.35766602 30.20898438 C12.99008207 43.20932718 8.68274741 54.39047312 0.875 64.8125 C0.41480469 65.45445312 -0.04539062 66.09640625 -0.51953125 66.7578125 C-21.75970949 94.05786868 -69.81271115 97.39487912 -101.56286621 101.50396729 C-114.69867642 103.08578444 -127.92504912 103.96111355 -141.125 104.8125 C-138.04031252 106.86895832 -135.29634997 107.94883749 -131.81640625 109.2109375 C-130.51304892 109.68843465 -129.20983246 110.16631642 -127.90673828 110.64453125 C-127.21968811 110.89541504 -126.53263794 111.14629883 -125.82476807 111.40478516 C-109.67248141 117.32010983 -93.83869179 123.80577614 -78.125 130.8125 C-76.97676758 131.32345215 -75.82853516 131.8344043 -74.64550781 132.36083984 C-61.48157467 138.24860742 -48.38394266 144.17957344 -36.125 151.8125 C-35.31675781 152.29589844 -34.50851562 152.77929688 -33.67578125 153.27734375 C-29.61941506 156.11597729 -28.619012 158.71987141 -27.6875 163.5625 C-27.45482069 165.64127232 -27.26554944 167.72547343 -27.125 169.8125 C-27.03798828 171.07126953 -27.03798828 171.07126953 -26.94921875 172.35546875 C-26.7140345 179.9432552 -26.85582018 189.40873027 -31.125 195.8125 C-37.95806983 197.00085997 -42.83225374 193.79258808 -48.6875 190.5625 C-49.69329102 190.02326904 -50.69908203 189.48403809 -51.73535156 188.9284668 C-54.87471402 187.23994458 -58.00155687 185.53027085 -61.125 183.8125 C-62.08583496 183.28414551 -63.04666992 182.75579102 -64.03662109 182.21142578 C-64.96684082 181.69950684 -65.89706055 181.18758789 -66.85546875 180.66015625 C-68.69517197 179.64818198 -70.53501401 178.63646003 -72.375 177.625 C-73.28080811 177.12613281 -74.18661621 176.62726563 -75.11987305 176.11328125 C-81.66745486 172.53491744 -88.30404082 169.22169455 -95.08300781 166.10473633 C-100.58308531 163.57564853 -105.99929513 160.89183022 -111.40895081 158.1762085 C-119.81177086 153.96012176 -128.24279042 149.80202574 -136.68432617 145.6640625 C-138.54419763 144.7510317 -140.40289465 143.83560523 -142.26049805 142.91796875 C-144.97954108 141.5751147 -147.70220069 140.23987196 -150.42578125 138.90625 C-151.25692947 138.49387085 -152.0880777 138.0814917 -152.94441223 137.65661621 C-153.7133934 137.28202271 -154.48237457 136.9074292 -155.2746582 136.52148438 C-155.94809769 136.19031616 -156.62153717 135.85914795 -157.31538391 135.51794434 C-159.26714444 134.63089572 -159.26714444 134.63089572 -162.125 134.8125 C-163.94411717 136.85356902 -163.94411717 136.85356902 -165.671875 139.5703125 C-166.34903564 140.5823877 -167.02619629 141.59446289 -167.72387695 142.63720703 C-168.43374756 143.72630371 -169.14361816 144.81540039 -169.875 145.9375 C-170.5971167 147.03304199 -171.3192334 148.12858398 -172.06323242 149.25732422 C-177.03412673 156.89331278 -181.38988536 164.50967551 -185.125 172.8125 C-186.99082091 176.87129946 -188.81950331 179.91912973 -192 183.0625 C-192.98613281 184.06023437 -192.98613281 184.06023437 -193.9921875 185.078125 C-196.90373205 187.44575464 -199.50237585 188.77741623 -203.29296875 188.859375 C-208.90277778 188.03472222 -208.90277778 188.03472222 -211.125 185.8125 C-211.83993111 179.72037429 -210.15482909 176.00514848 -207.25 170.875 C-206.84362305 170.13628662 -206.43724609 169.39757324 -206.01855469 168.63647461 C-199.21800039 156.42071229 -191.66030216 144.8877259 -183.32714844 133.66235352 C-182.79508789 132.94233154 -182.26302734 132.22230957 -181.71484375 131.48046875 C-181.23909912 130.84391357 -180.76335449 130.2073584 -180.27319336 129.55151367 C-178.94443201 127.70216276 -178.94443201 127.70216276 -178.125 124.8125 C-178.82625 124.73 -179.5275 124.6475 -180.25 124.5625 C-183.96644789 123.59299185 -186.24006375 122.36197854 -189.125 119.8125 C-190.55858555 114.51926104 -188.57518434 111.41800715 -185.9375 106.75 C-177.53236882 93.2206138 -177.53236882 93.2206138 -170.13085938 91.29321289 C-167.82222399 90.84625743 -165.51314512 90.4724229 -163.1875 90.125 C-162.40181641 89.99544922 -161.61613281 89.86589844 -160.80664062 89.73242188 C-156.53708794 89.05715371 -152.46205729 88.66630706 -148.125 88.8125 C-147.8878125 88.28527344 -147.650625 87.75804687 -147.40625 87.21484375 C-145.73480392 84.08088235 -143.69988492 81.2487414 -141.625 78.375 C-140.96286499 77.45400513 -140.96286499 77.45400513 -140.28735352 76.5144043 C-134.40148731 68.37268936 -128.30852395 60.40535035 -121.875 52.6875 C-116.93031512 46.71304232 -112.38292573 40.4546236 -107.82128906 34.18505859 C-107.24217773 33.3905127 -106.66306641 32.5959668 -106.06640625 31.77734375 C-105.54763916 31.0618335 -105.02887207 30.34632324 -104.49438477 29.60913086 C-103.125 27.8125 -103.125 27.8125 -101.125 25.8125 C-107.94128528 25.46624458 -114.37750975 26.76262963 -121.0625 28 C-122.89506348 28.33294067 -122.89506348 28.33294067 -124.76464844 28.67260742 C-136.59414999 30.84726056 -148.36856322 33.27484603 -160.125 35.8125 C-160.455 37.1325 -160.785 38.4525 -161.125 39.8125 C-159.86042969 39.84988281 -158.59585937 39.88726562 -157.29296875 39.92578125 C-155.6327827 39.99143833 -153.97262778 40.05788576 -152.3125 40.125 C-151.47912109 40.14755859 -150.64574219 40.17011719 -149.78710938 40.19335938 C-148.98466797 40.22880859 -148.18222656 40.26425781 -147.35546875 40.30078125 C-146.24788208 40.34005737 -146.24788208 40.34005737 -145.11791992 40.38012695 C-142.65333609 40.91482963 -141.72447676 41.91215347 -140.125 43.8125 C-146.4011871 50.0886871 -173.34229291 47.11742996 -182 47.25 C-183.15161621 47.28424072 -184.30323242 47.31848145 -185.48974609 47.35375977 C-193.3140236 47.39545949 -193.3140236 47.39545949 -196.9453125 44.78515625 C-199.05643997 39.46539464 -197.7406419 34.93864167 -195.59375 29.8828125 C-194.95550374 28.55887718 -194.29858794 27.24380866 -193.625 25.9375 C-193.26897705 25.24277588 -192.9129541 24.54805176 -192.54614258 23.83227539 C-183.95917222 7.72305163 -170.1267771 0.00383334 -153.125 -5.1875 C-109.02071754 -18.17766298 -40.63902516 -28.44731761 0 0 Z M-60.125 21.8125 C-59.84785156 22.34359375 -59.57070312 22.8746875 -59.28515625 23.421875 C-58.74181641 24.48148437 -58.74181641 24.48148437 -58.1875 25.5625 C-57.64802734 26.60664063 -57.64802734 26.60664063 -57.09765625 27.671875 C-54.10830478 34.25084932 -54.04013627 42.34992162 -56.25 49.1875 C-58.3818606 54.07176278 -61.72013446 56.70818574 -66.56640625 58.93359375 C-71.79770324 60.22562649 -76.88343184 60.06040568 -82.25 60 C-83.31476563 59.99935547 -84.37953125 59.99871094 -85.4765625 59.99804688 C-94.21831607 59.95030672 -94.21831607 59.95030672 -98.38256836 59.31738281 C-103.963849 58.2800964 -103.963849 58.2800964 -109.07714844 60.08569336 C-110.78453234 62.02175406 -112.10423518 63.97797907 -113.4375 66.1875 C-114.42792572 67.66437088 -115.41880899 69.14093503 -116.41015625 70.6171875 C-116.87180176 71.33745117 -117.33344727 72.05771484 -117.80908203 72.79980469 C-119.52283804 75.42099292 -121.42093309 77.86696756 -123.375 80.3125 C-123.91640625 81.0034375 -124.4578125 81.694375 -125.015625 82.40625 C-125.38171875 82.8703125 -125.7478125 83.334375 -126.125 83.8125 C-122.7504954 85.4997523 -119.14207076 83.97645792 -115.578125 83.22265625 C-114.27199753 82.95349396 -114.27199753 82.95349396 -112.93948364 82.67889404 C-110.08276115 82.0862786 -107.22873929 81.48180915 -104.375 80.875 C-103.40459778 80.67031097 -102.43419556 80.46562195 -101.43438721 80.25473022 C-50.240474 71.59606747 -50.240474 71.59606747 -8.125 44.375 C-6.70818663 40.74441573 -6.2070007 37.6400903 -7.125 33.8125 C-15.01587505 24.42875669 -30.55688334 22.90199869 -42.125 21.8125 C-48.12783216 21.52176454 -54.12062909 21.62087114 -60.125 21.8125 Z " fill="#E6935B" transform="translate(1367.125,365.1875)"/>
<path d="M0 0 C0.85770493 -0.0071553 1.71540985 -0.01431061 2.59910583 -0.02168274 C3.53214035 -0.02437164 4.46517487 -0.02706055 5.42648315 -0.02983093 C6.4156221 -0.03640213 7.40476105 -0.04297333 8.4238739 -0.04974365 C11.69801919 -0.06945625 14.97211861 -0.08113592 18.24630737 -0.09111023 C19.3665115 -0.09518576 20.48671562 -0.09926128 21.64086533 -0.10346031 C27.57216965 -0.12431421 33.50345089 -0.13861785 39.43478394 -0.147995 C45.54779821 -0.1590467 51.66044722 -0.19343468 57.7733326 -0.23316669 C62.48497168 -0.25936959 67.1965243 -0.26769021 71.90822983 -0.27127647 C74.16077003 -0.27613435 76.41330657 -0.28772539 78.6657753 -0.30631447 C81.82718702 -0.33077926 84.98766111 -0.32972699 88.1491394 -0.32279968 C89.07002853 -0.33560974 89.99091766 -0.3484198 90.93971252 -0.36161804 C99.70340426 -0.29204131 107.6428634 2.33270135 114.14083862 8.36982727 C118.92275199 13.90613918 121.78062003 20.11065479 121.82316589 27.43321228 C121.83389885 28.70714844 121.83389885 28.70714844 121.84484863 30.00682068 C121.84753754 30.93050446 121.85022644 31.85418823 121.85299683 32.80586243 C121.85956802 33.7852478 121.86613922 34.76463318 121.87290955 35.7736969 C121.8926212 39.01537658 121.90430163 42.25700994 121.91427612 45.49873352 C121.91835165 46.60790508 121.92242718 47.71707664 121.92662621 48.85985947 C121.94747976 54.73280907 121.96178352 60.60573538 121.97116089 66.47871399 C121.98221222 72.53119577 122.01659985 78.58330859 122.05633259 84.63566017 C122.08253719 89.30097618 122.09085626 93.96620486 122.09444237 98.63158798 C122.09929984 100.86179974 122.11088974 103.09200781 122.12948036 105.32214737 C122.15394872 108.45242889 122.15289225 111.58176363 122.14596558 114.71211243 C122.16518066 116.07942001 122.16518066 116.07942001 122.18478394 117.47434998 C122.11528523 126.14399809 119.49065492 134.16891541 113.51974487 140.61201477 C107.84127033 145.34006667 100.82084988 148.25091427 93.43464661 148.29434204 C92.17549942 148.305075 92.17549942 148.305075 90.89091492 148.31602478 C89.97815292 148.31871368 89.06539093 148.32140259 88.12496948 148.32417297 C86.67293121 148.33402977 86.67293121 148.33402977 85.19155884 148.34408569 C81.98715127 148.3637982 78.7827906 148.3754787 75.57833862 148.38545227 C74.48144777 148.3895278 73.38455692 148.39360332 72.25442696 148.39780235 C66.44516311 148.41865745 60.63592282 148.43295988 54.82662964 148.44233704 C48.84374639 148.45338155 42.86123708 148.4877608 36.87848568 148.52750874 C32.26374143 148.5537337 27.64908535 148.56203426 23.03427315 148.56561852 C20.83000739 148.57047167 18.62574522 148.58204912 16.42155266 148.60065651 C-10.4152545 148.81307005 -10.4152545 148.81307005 -19.82400513 139.92451477 C-24.54643307 134.32892958 -27.42852412 128.20195872 -27.47117615 120.86112976 C-27.47833145 120.01183899 -27.48548676 119.16254822 -27.49285889 118.28752136 C-27.49554779 117.36383759 -27.49823669 116.44015381 -27.50100708 115.48847961 C-27.50757828 114.50909424 -27.51414948 113.52970886 -27.5209198 112.52064514 C-27.54063145 109.27896546 -27.55231188 106.0373321 -27.56228638 102.79560852 C-27.5663619 101.68643696 -27.57043743 100.5772654 -27.57463646 99.43448257 C-27.59549001 93.56153297 -27.60979377 87.68860666 -27.61917114 81.81562805 C-27.63022248 75.76314627 -27.66461011 69.71103345 -27.70434284 63.65868187 C-27.73054744 58.99336587 -27.73886651 54.32813718 -27.74245262 49.66275406 C-27.7473101 47.4325423 -27.7589 45.20233423 -27.77749062 42.97219467 C-27.80195897 39.84191315 -27.80090251 36.71257841 -27.79397583 33.58222961 C-27.80678589 32.67069122 -27.81959595 31.75915283 -27.83279419 30.81999207 C-27.75783796 21.46954217 -24.6607841 13.65487122 -18.25759888 6.83857727 C-13.03810723 2.27284014 -6.89376341 0.03965686 0 0 Z " fill="#0B9CE3" transform="translate(500.3240051269531,269.8528289794922)"/>
<path d="M0 0 C2.59070613 2.10494873 2.93541275 3.05663223 3.3125 6.375 C2.85625592 11.11993843 0.92603169 13.76992737 -2.484375 17.0546875 C-7.38978899 21.07018125 -12.99188042 23.69740111 -18.65454102 26.45703125 C-38.74093283 36.30697751 -59.57399123 49.54326528 -69.9375 70.125 C-71.29630651 74.60106851 -71.82713135 78.98657712 -71 83.625 C-69.50623951 85.71901394 -68.66315201 86.49927743 -66.125 86.98046875 C-58.48195201 86.37633077 -53.75834943 82.39768601 -48 77.625 C-47.42491699 77.14998047 -46.84983398 76.67496094 -46.25732422 76.18554688 C-36.76744631 68.30907525 -28.22546416 60.30199414 -20.4765625 50.67578125 C-17.28508121 46.74431929 -14.00707504 42.89022003 -10.71777344 39.04052734 C-8.8297795 36.82313578 -6.9956521 34.61889891 -5.3046875 32.24609375 C-4.65886719 31.44365234 -4.65886719 31.44365234 -4 30.625 C-3.34 30.625 -2.68 30.625 -2 30.625 C-1.67 29.635 -1.34 28.645 -1 27.625 C3.46550558 23.14655093 7.7956449 21.83181184 14 21.625 C17 22.625 17 22.625 19 25.625 C20.17173466 37.73292478 14.63916546 49.06326364 9.75 59.875 C9.27199951 60.9467749 8.79399902 62.0185498 8.30151367 63.12280273 C4.3202395 72.01300725 0.21553634 80.84363921 -4 89.625 C2.42720225 85.43006917 8.65274378 81.014575 14.8125 76.4375 C15.64458984 75.82197266 16.47667969 75.20644531 17.33398438 74.57226562 C21.77383501 71.29899794 21.77383501 71.29899794 26.1394043 67.9284668 C28 66.625 28 66.625 30 66.625 C30.98012182 70.57660226 31.07771009 73.67981126 30 77.625 C25.89171087 82.34464168 21.00382817 85.90490234 16 89.625 C14.23176405 90.99764678 12.47438972 92.38328327 10.71777344 93.77075195 C9.57095283 94.67487559 8.42053402 95.5744534 7.26660156 96.46948242 C2.31318645 100.31913235 -2.44889247 104.36896568 -7.16308594 108.50708008 C-10.08376595 111.05583363 -12.93988635 113.27857475 -16.25 115.3125 C-22.22132853 119.61236691 -25.31269632 127.27613685 -28.82128906 133.55517578 C-40.24388037 153.61332182 -58.87249931 182.2403012 -81 191.625 C-83.90653761 192.13614972 -86.00015258 191.92498474 -89 191.625 C-92.07993187 187.00510219 -91.02316757 182.9280842 -90 177.625 C-84.01617722 158.53139121 -69.09596816 140.65571013 -53.6875 128.125 C-52.32431641 127.01511719 -52.32431641 127.01511719 -50.93359375 125.8828125 C-48 123.625 -48 123.625 -44.72265625 121.4921875 C-28.76642057 110.43493518 -21.73405665 88.13770092 -15 70.625 C-15.56509277 71.20056641 -16.13018555 71.77613281 -16.71240234 72.36914062 C-19.26142102 74.95958544 -21.81807556 77.54235937 -24.375 80.125 C-25.26445313 81.03121094 -26.15390625 81.93742187 -27.0703125 82.87109375 C-28.34648438 84.15693359 -28.34648438 84.15693359 -29.6484375 85.46875 C-30.43395996 86.26474609 -31.21948242 87.06074219 -32.02880859 87.88085938 C-34 89.625 -34 89.625 -36 89.625 C-36 90.285 -36 90.945 -36 91.625 C-38.08637752 93.46486029 -40.17478659 95.1805536 -42.375 96.875 C-43.01115234 97.36863037 -43.64730469 97.86226074 -44.30273438 98.37084961 C-53.14450593 105.13907882 -61.90749318 111.4698353 -73.48046875 111.10546875 C-78.35311282 110.17626686 -81.03572422 107.4687186 -84 103.625 C-89.06491935 95.39704868 -92.07701461 87.08408866 -94 77.625 C-94.47421387 78.1096875 -94.94842773 78.594375 -95.43701172 79.09375 C-97.57781737 81.27599737 -99.72626868 83.45055737 -101.875 85.625 C-102.62136719 86.388125 -103.36773438 87.15125 -104.13671875 87.9375 C-105.20986328 89.0203125 -105.20986328 89.0203125 -106.3046875 90.125 C-106.96452637 90.7953125 -107.62436523 91.465625 -108.30419922 92.15625 C-110 93.625 -110 93.625 -112 93.625 C-112 94.285 -112 94.945 -112 95.625 C-114.42431219 98.20741951 -117.26787517 100.37805599 -120 102.625 C-120.54124512 103.07182129 -121.08249023 103.51864258 -121.64013672 103.97900391 C-123.43871759 105.45564428 -125.24862968 106.91719286 -127.0625 108.375 C-127.6395166 108.84671631 -128.2165332 109.31843262 -128.81103516 109.80444336 C-135.02019968 114.72904411 -140.63994304 117.21640589 -148.69921875 116.8984375 C-151.95617914 116.51136241 -153.62585618 115.92720007 -156 113.625 C-159.610448 106.65310041 -160.19988691 99.56739134 -158.34375 91.921875 C-155.67409468 83.68276634 -151.85633422 76.37011107 -147.5625 68.875 C-146.89947938 67.69712706 -146.23736629 66.5187428 -145.57617188 65.33984375 C-142.18956073 59.34109221 -138.70989976 53.42931331 -135 47.625 C-141.09172724 51.50318972 -146.22387871 56.20930183 -151.45507812 61.16357422 C-152.88367515 62.51496199 -154.32414859 63.853765 -155.765625 65.19140625 C-163.21037508 72.32051634 -169.26213918 80.24622044 -175.40673828 88.49267578 C-177.88614721 91.81096533 -180.40110172 95.10013994 -182.9375 98.375 C-183.36160156 98.93485596 -183.78570313 99.49471191 -184.22265625 100.0715332 C-187.69110884 104.54002902 -191.37960507 109.03674808 -197.0625 110.3125 C-200.40831917 109.52943594 -201.82892053 108.34556918 -203.83984375 105.578125 C-208.29846505 98.07202853 -209.88034602 90.1991923 -211 81.625 C-211.66 81.625 -212.32 81.625 -213 81.625 C-214.77894771 83.58962912 -216.45866371 85.56832281 -218.125 87.625 C-228.74818614 100.40804408 -241.25396329 114.13736086 -258.5 116.625 C-264.14260091 116.93277823 -268.36067173 115.88433239 -273 112.625 C-280.88359593 105.45972716 -284.46720045 92.83781842 -285.13842773 82.49121094 C-286.19832168 57.33363034 -276.55346582 40.72371798 -259.9765625 22.38671875 C-253.44489953 15.53234516 -246.553478 9.98978257 -237 8.625 C-233.05440727 8.57450795 -229.90079728 9.09770403 -226.4375 11.125 C-224.68933333 14.16528987 -224.57458519 16.36374873 -225.13671875 19.8046875 C-229.1188801 32.81428248 -238.02201437 44.59729871 -248 53.625 C-248.66 53.625 -249.32 53.625 -250 53.625 C-250.2475 54.19347656 -250.495 54.76195312 -250.75 55.34765625 C-252.6593559 58.82626403 -255.41108259 61.44002295 -258.125 64.30859375 C-261.43076669 68.39259302 -262.54699769 72.34448454 -262.3671875 77.62890625 C-261.7037036 81.23571764 -259.89981242 83.56141256 -257 85.625 C-251.9654891 87.78811685 -247.22786319 88.07914982 -242.015625 86.4375 C-234.49489063 83.40588615 -228.233777 78.7475527 -221.859375 73.796875 C-219 71.625 -219 71.625 -216.703125 70.203125 C-211.52426017 66.95127964 -209.575469 63.21638438 -207.05639648 57.7109375 C-200.30681427 43.38077116 -188.27425732 23.86820543 -173 17.625 C-170.1484375 17.26171875 -170.1484375 17.26171875 -167.375 17.3125 C-165.99441406 17.31830078 -165.99441406 17.31830078 -164.5859375 17.32421875 C-161.91391263 17.63501318 -160.25589838 18.18061257 -158 19.625 C-156.57287667 22.47924666 -156.69475371 24.45662074 -157 27.625 C-158.65234375 30.265625 -158.65234375 30.265625 -160.9375 32.875 C-162.175 34.31166016 -162.175 34.31166016 -163.4375 35.77734375 C-165.75177167 38.34914871 -168.09154802 40.89465563 -170.4375 43.4375 C-177.84384306 51.61181185 -185.61947486 60.63796088 -188 71.625 C-187.67 72.285 -187.34 72.945 -187 73.625 C-183.84280428 72.23109461 -181.7187347 70.58865028 -179.3125 68.125 C-178.71050781 67.5165625 -178.10851563 66.908125 -177.48828125 66.28125 C-175.91687598 64.6797309 -175.91687598 64.6797309 -175 62.625 C-174.34 62.625 -173.68 62.625 -173 62.625 C-172.72849121 62.03203125 -172.45698242 61.4390625 -172.17724609 60.828125 C-171.02077117 58.66387164 -169.8387243 57.15496946 -168.1640625 55.375 C-167.60050049 54.77252441 -167.03693848 54.17004883 -166.45629883 53.54931641 C-165.85197021 52.91429199 -165.2476416 52.27926758 -164.625 51.625 C-163.68660278 50.63185791 -163.68660278 50.63185791 -162.72924805 49.61865234 C-160.82693407 47.61350407 -158.9155941 45.617459 -157 43.625 C-156.4539209 43.05555664 -155.9078418 42.48611328 -155.34521484 41.89941406 C-146.0941 32.3020008 -136.11967253 24.04326207 -125.3125 16.25 C-124.61165283 15.73759766 -123.91080566 15.22519531 -123.1887207 14.69726562 C-118.03491947 11.04516604 -112.68509026 7.70689089 -106.1875 7.5625 C-102.82714429 9.19467277 -102.29750807 11.16497847 -101 14.625 C-99.4651193 19.91074542 -98.37585491 25.1117184 -99 30.625 C-101.73632123 35.20467049 -105.0416084 39.09126846 -108.5625 43.0625 C-124.04639913 59.65646749 -124.04639913 59.65646749 -131.375 80.125 C-131.22266514 83.47082176 -131.22266514 83.47082176 -130 85.625 C-118.20607831 85.40247318 -109.2781495 76.49825559 -100.39453125 69.5378418 C-99.73839844 69.03164307 -99.08226562 68.52544434 -98.40625 68.00390625 C-97.82166016 67.5457251 -97.23707031 67.08754395 -96.63476562 66.61547852 C-95 65.625 -95 65.625 -92 65.625 C-91.88398437 64.73941406 -91.76796875 63.85382813 -91.6484375 62.94140625 C-87.66118895 42.54879165 -65.00902102 26.52501357 -49 15.625 C-15.03255364 -6.88992042 -15.03255364 -6.88992042 0 0 Z " fill="#E7935B" transform="translate(2046,425.375)"/>
<path d="M0 0 C2.66167871 3.94958776 4.57528712 7.26150625 5.625 11.9375 C4.78586849 15.52288007 3.96628684 15.84695694 0.9375 17.75 C-0.3842515 18.47971697 -1.71450426 19.19498429 -3.0625 19.875 C-2.7015625 20.66003906 -2.340625 21.44507813 -1.96875 22.25390625 C-1.27265625 23.82978516 -1.27265625 23.82978516 -0.5625 25.4375 C0.13359375 26.98630859 0.13359375 26.98630859 0.84375 28.56640625 C2.55626411 33.74676143 2.76252373 37.23275419 0.28515625 42.1640625 C-0.46030458 43.28700563 -1.22293309 44.39869163 -2 45.5 C-2.400979 46.09756104 -2.80195801 46.69512207 -3.21508789 47.31079102 C-5.29052015 50.38534082 -7.43768659 53.4074604 -9.59375 56.42578125 C-9.99730713 56.99538574 -10.40086426 57.56499023 -10.81665039 58.15185547 C-11.9366831 59.72364471 -13.07524076 61.28218534 -14.21484375 62.83984375 C-17.97942422 69.02394317 -18.5278669 73.99904764 -17.0625 80.875 C-15.554177 83.97103142 -14.67931246 84.65470984 -11.4375 85.8125 C0.84408844 86.03993682 12.98356744 76.23953099 21.484375 68.08984375 C22.9375 66.875 22.9375 66.875 24.9375 66.875 C25.246875 65.699375 25.55625 64.52375 25.875 63.3125 C31.04345369 47.9278972 45.61347681 25.68170985 59.9375 17.875 C64.42097465 16.2310593 69.22739645 16.34296778 73.75 17.75 C75.9375 18.875 75.9375 18.875 77.9375 20.875 C78.76070265 25.81421587 77.29711085 28.70673748 74.61328125 32.67578125 C70.02119445 38.70222616 64.78157801 44.08607732 59.3125 49.3125 C53.02405568 55.54578253 47.141128 62.71174022 46.9375 71.875 C52.59836342 71.65685497 55.67069536 67.8451111 59.5 64.125 C60.15935547 63.50367188 60.81871094 62.88234375 61.49804688 62.2421875 C64.3001775 59.57241883 66.86939069 56.960961 69.27734375 53.921875 C69.82519531 53.24640625 70.37304688 52.5709375 70.9375 51.875 C71.5975 51.875 72.2575 51.875 72.9375 51.875 C72.9375 51.215 72.9375 50.555 72.9375 49.875 C75.3125 47.25 75.3125 47.25 77.9375 44.875 C78.5975 44.875 79.2575 44.875 79.9375 44.875 C80.25267578 44.05708984 80.25267578 44.05708984 80.57421875 43.22265625 C82.4376919 40.01363802 85.01647189 37.76470583 87.75 35.3125 C88.32459961 34.79091309 88.89919922 34.26932617 89.49121094 33.73193359 C115.63581643 10.14201329 115.63581643 10.14201329 127.9375 9.875 C131.67578799 11.00983743 133.25836273 12.1053111 135.8125 15 C138.05177288 20.72258625 137.79354515 24.63591493 135.63671875 30.27734375 C127.45122905 48.23027478 114.93718391 64.33694776 102.9375 79.875 C106.91741792 76.4829029 110.87160191 73.07089759 114.75 69.5625 C115.59304688 68.80324219 116.43609375 68.04398437 117.3046875 67.26171875 C119.10870095 65.6263297 120.90523119 63.98265863 122.6953125 62.33203125 C123.57960938 61.52121094 124.46390625 60.71039063 125.375 59.875 C126.17808594 59.1325 126.98117187 58.39 127.80859375 57.625 C129.9375 55.875 129.9375 55.875 132.9375 54.875 C133.2675 53.885 133.5975 52.895 133.9375 51.875 C135.2578125 50.54296875 135.2578125 50.54296875 137.0625 49.0625 C141.26227249 45.51116635 145.25437342 41.77632379 149.25 38 C154.53212329 33.03055639 159.89699693 28.29388911 165.57421875 23.77734375 C167.7047574 22.06234817 169.7265087 20.27583523 171.75 18.4375 C174.58349144 15.96675022 177.24778774 14.77492982 180.9375 13.875 C186.87129829 18.81983191 189.26397085 24.96853093 190.5625 32.5 C189.27866835 39.4326909 183.84599396 43.9888125 179.1875 49 C175.31046914 53.21186534 171.78993479 57.54746461 168.4375 62.1875 C168.01629883 62.76193848 167.59509766 63.33637695 167.16113281 63.92822266 C163.82111451 68.64828947 161.32421561 73.22936997 162.125 79.125 C162.53265019 83.10756629 162.53265019 83.10756629 165.9375 84.875 C172.88860218 85.57011022 177.10150527 83.82739165 182.62060547 79.57958984 C184.27170333 78.20392176 185.89099266 76.7996217 187.5 75.375 C191.48524225 71.87180501 195.45886532 68.73055053 199.9375 65.875 C201.15108968 75.9882473 201.15108968 75.9882473 198.4375 80.20703125 C196.36864223 82.25568533 194.22431772 84.07398293 191.9375 85.875 C190.70486275 86.97529093 189.47565927 88.0794413 188.25 89.1875 C186.81318058 90.41746215 185.37559308 91.64652727 183.9375 92.875 C182.51824219 94.12796875 182.51824219 94.12796875 181.0703125 95.40625 C175.32965931 100.43222854 169.45052223 105.10151441 163.125 109.375 C162.52743896 109.78403564 161.92987793 110.19307129 161.31420898 110.61450195 C154.52627521 115.08583696 148.13078711 117.68089709 139.9375 116.875 C136.50609871 115.50243948 135.22339959 114.28906147 133.125 111.25 C129.60161524 101.23616964 133.54564768 92.0767579 137.88037109 82.87304688 C143.49851551 71.45684657 150.19462751 60.65099249 156.9375 49.875 C155.67459894 50.80000301 154.41479092 51.72922962 153.15625 52.66015625 C152.1034082 53.43564819 152.1034082 53.43564819 151.02929688 54.22680664 C148.36619905 56.32514621 146.06029054 58.66862174 143.70703125 61.1015625 C141.916118 62.8964292 140.0530198 64.5415352 138.125 66.1875 C129.48678834 73.18369287 129.48678834 73.18369287 122.9375 81.875 C122.2775 81.875 121.6175 81.875 120.9375 81.875 C120.72480469 82.40609375 120.51210937 82.9371875 120.29296875 83.484375 C118.41512004 86.79631567 115.85758824 89.38494389 113.25 92.125 C112.15786359 93.28552693 111.06671314 94.44698252 109.9765625 95.609375 C109.45094727 96.16947266 108.92533203 96.72957031 108.38378906 97.30664062 C106.56674637 99.27704614 104.84378712 101.31873414 103.125 103.375 C98.56449589 108.64912823 93.6393045 112.53847232 86.5 113.1875 C82.9375 112.875 82.9375 112.875 80.5625 111.0625 C77.53668353 106.98928552 77.27321094 102.77313141 77.9375 97.875 C82.16458159 83.67923935 90.80904948 69.59835331 98.72290039 57.18603516 C100.01149139 54.73421558 100.52957498 52.60233904 100.9375 49.875 C97.51803076 49.45829049 96.22317 49.6718183 93.3671875 51.703125 C92.52414062 52.50234375 91.68109375 53.3015625 90.8125 54.125 C89.96429687 54.91390625 89.11609375 55.7028125 88.2421875 56.515625 C85.93059219 58.77054195 85.93059219 58.77054195 84.2578125 61.171875 C83.60425781 62.01492188 83.60425781 62.01492188 82.9375 62.875 C82.2775 62.875 81.6175 62.875 80.9375 62.875 C80.66599121 63.47086914 80.39448242 64.06673828 80.11474609 64.68066406 C78.95807539 66.83664836 77.81213471 68.25339287 76.1015625 69.984375 C75.53783936 70.56598389 74.97411621 71.14759277 74.39331055 71.74682617 C73.78914307 72.36662354 73.18497559 72.9864209 72.5625 73.625 C65.84783573 80.66035948 60.00049129 88.11060865 54.30712891 95.98242188 C52.16484953 98.94266247 49.99196261 101.87958774 47.8125 104.8125 C47.10867188 105.77027344 46.40484375 106.72804688 45.6796875 107.71484375 C43.48420877 110.43704047 42.58495201 110.78867307 39.125 111.25 C34.73119382 110.73308163 33.67708648 109.31704455 30.9375 105.875 C26.73853993 100.33037913 25.3710044 94.78194561 24.2890625 88.046875 C24.15669189 87.25974121 24.02432129 86.47260742 23.88793945 85.66162109 C23.56468835 83.73381586 23.2502045 81.80454404 22.9375 79.875 C21.91148682 80.93243408 21.91148682 80.93243408 20.86474609 82.01123047 C18.26253332 84.68722815 15.6459636 87.34882621 13.02539062 90.00683594 C11.90472078 91.14731238 10.78769845 92.2913874 9.67480469 93.43945312 C-15.02007007 118.89348316 -15.02007007 118.89348316 -30.953125 119.96484375 C-34.39248093 119.81835266 -36.33617113 118.95220295 -39.0625 116.875 C-43.59608446 109.77238434 -42.8859239 101.56512831 -41.23046875 93.56640625 C-39.740546 86.93736084 -37.95567727 80.39878654 -36.0625 73.875 C-37.63756841 75.55085982 -39.21213024 77.22719169 -40.78613281 78.90405273 C-42.1493169 80.35609015 -43.5132629 81.80741262 -44.87792969 83.25805664 C-48.06393416 86.65053385 -51.23737343 90.04992876 -54.34375 93.515625 C-71.11966942 112.19808408 -71.11966942 112.19808408 -81.0625 114.875 C-85.70960126 115.0409679 -88.26734226 114.06985851 -91.625 111 C-95.7372059 106.47288543 -98.50306421 101.39954583 -101.0625 95.875 C-101.47886719 94.98167969 -101.89523437 94.08835937 -102.32421875 93.16796875 C-104.85163196 86.82726544 -105.43863752 80.87748403 -105.5 74.125 C-105.51015137 73.33287109 -105.52030273 72.54074219 -105.53076172 71.72460938 C-105.39144785 62.34545004 -101.96381288 55.95657546 -96.0625 48.875 C-95.4746875 48.153125 -94.886875 47.43125 -94.28125 46.6875 C-89.13841044 40.61726315 -83.3017677 35.77853715 -77.0625 30.875 C-76.27101563 30.21757812 -75.47953125 29.56015625 -74.6640625 28.8828125 C-59.87505344 16.64871531 -19.54894625 -13.56457495 0 0 Z M-73.0625 56.875 C-73.75472656 57.45507812 -74.44695312 58.03515625 -75.16015625 58.6328125 C-80.53845929 63.54294054 -84.44320366 69.48094502 -85.47265625 76.78515625 C-85.63103543 81.90149231 -85.45693589 85.77338997 -82.0625 89.875 C-68.69827114 89.57801714 -57.76915873 76.81078133 -49.0625 67.875 C-48.505625 67.35164063 -47.94875 66.82828125 -47.375 66.2890625 C-41.41155043 60.59012077 -36.46529243 54.23347199 -31.46484375 47.70068359 C-30.09154934 45.91281876 -28.70446169 44.13663646 -27.3125 42.36328125 C-22.89594276 36.71702226 -18.70346035 31.06463259 -15.0625 24.875 C-32.18724502 24.875 -60.17519043 45.99802608 -73.0625 56.875 Z " fill="#E7935B" transform="translate(1560.0625,425.125)"/>
<path d="M0 0 C0.76162445 -0.00671722 1.5232489 -0.01343445 2.30795288 -0.02035522 C4.81677842 -0.03929822 7.32533599 -0.04325729 9.83422852 -0.04541016 C11.58390919 -0.05183982 13.33358878 -0.05856831 15.08326721 -0.06558228 C18.74743136 -0.07754517 22.4115013 -0.08126403 26.07568359 -0.08007812 C30.76435344 -0.0798748 35.45241809 -0.10719511 40.14094448 -0.14162254 C43.75355287 -0.16388797 47.3660154 -0.16791581 50.97868538 -0.16685867 C52.70701245 -0.16921447 54.43534354 -0.17803683 56.16360283 -0.19352341 C58.58345543 -0.21318014 61.00200011 -0.20734787 63.421875 -0.1953125 C64.13115646 -0.20655151 64.84043793 -0.21779053 65.57121277 -0.22937012 C70.58441434 -0.16619889 73.42298176 1.13553458 77.27563477 4.29052734 C80.55208918 9.20520896 80.40362673 13.72939844 80.42089844 19.54003906 C80.42425705 20.25128937 80.42761566 20.96253967 80.43107605 21.69534302 C80.44054284 24.03698493 80.44252699 26.37855501 80.44360352 28.72021484 C80.44681901 30.35539784 80.45018331 31.99058054 80.45368958 33.62576294 C80.45967012 37.0503201 80.46153057 40.47485205 80.4609375 43.89941406 C80.46083593 48.27616393 80.47448786 52.6527514 80.49170971 57.02946281 C80.50285681 60.40618627 80.50485588 63.78287078 80.50432777 67.15961075 C80.50550381 68.77266118 80.50990438 70.38571275 80.51766014 71.99874496 C80.52751516 74.26001953 80.52456051 76.52094576 80.51855469 78.78222656 C80.51997971 80.06620331 80.52140472 81.35018005 80.52287292 82.67306519 C80.1901816 87.54083425 79.51640435 91.76024485 76.40063477 95.60302734 C71.94978946 99.13752214 68.35682033 99.58824892 62.7565918 99.58105469 C61.62900452 99.59113052 61.62900452 99.59113052 60.4786377 99.60140991 C57.99684006 99.62038704 55.51531291 99.62431395 53.03344727 99.62646484 C51.30475758 99.63289303 49.57606899 99.63962141 47.84738159 99.64663696 C44.22431924 99.65860904 40.60135222 99.66231787 36.97827148 99.66113281 C32.34225679 99.66092964 27.70685522 99.68823016 23.07098579 99.72267723 C19.50040902 99.74494654 15.92997978 99.74897035 12.35934067 99.74791336 C10.65055097 99.75026933 8.9417572 99.75909271 7.23303604 99.77457809 C4.83941321 99.79423914 2.44711224 99.78840053 0.0534668 99.77636719 C-0.64803497 99.7876062 -1.34953674 99.79884521 -2.07229614 99.8104248 C-7.07573304 99.74670965 -9.92225974 98.50255246 -13.72436523 95.29052734 C-17.06258709 91.22994429 -17.15924617 87.35404449 -17.12841797 82.29077148 C-17.13528122 81.49988632 -17.14214447 80.70900116 -17.1492157 79.89414978 C-17.16747078 77.28781016 -17.1636481 74.68207324 -17.15795898 72.07568359 C-17.16252148 70.2587413 -17.16782725 68.44180073 -17.17384338 66.62486267 C-17.18277199 62.81941715 -17.1803543 59.01418151 -17.17041016 55.20874023 C-17.15892193 50.33844397 -17.17913084 45.46887291 -17.20832729 40.59867191 C-17.226697 36.84707558 -17.22639528 33.09565278 -17.22068977 29.34402275 C-17.22053665 27.5487205 -17.22657385 25.75340643 -17.23898125 23.95814705 C-17.25390396 21.44486479 -17.24320564 18.93291894 -17.22607422 16.41967773 C-17.24057617 15.31367722 -17.24057617 15.31367722 -17.25537109 14.18533325 C-17.18300822 9.10085037 -16.06281434 6.12039709 -12.72436523 2.29052734 C-8.71270153 -0.11028808 -4.55865141 -0.0058088 0 0 Z " fill="#E7935B" transform="translate(387.724365234375,426.70947265625)"/>
<path d="M0 0 C143.88 0 287.76 0 436 0 C436 5.61 436 11.22 436 17 C292.12 17 148.24 17 0 17 C0 11.39 0 5.78 0 0 Z " fill="#E7935B" transform="translate(621,517)"/>
<path d="M0 0 C1.3984375 1.33984375 1.3984375 1.33984375 2.5234375 4.83984375 C2.4077484 8.0791386 2.19177395 9.70258426 0.3984375 12.33984375 C1.1615625 12.56671875 1.9246875 12.79359375 2.7109375 13.02734375 C6.10751316 14.68613651 6.79809019 15.93280062 8.3984375 19.33984375 C8.74822192 22.03318375 8.92248108 24.40097043 8.8984375 27.08984375 C8.89344238 27.83065186 8.88844727 28.57145996 8.88330078 29.3347168 C8.51308726 41.43303922 4.34574457 52.57096081 -1.5625 63.01953125 C-2.95096103 65.41888223 -2.95096103 65.41888223 -1.6015625 68.33984375 C5.88494267 67.35800701 10.27992931 64.64901264 16.2109375 60.01953125 C18.3984375 58.33984375 18.3984375 58.33984375 19.3984375 58.33984375 C20.25210982 62.58631634 20.46514629 66.11766151 19.3984375 70.33984375 C13.7124697 76.52240263 4.84642159 83.01370671 -3.6015625 84.33984375 C-5.68390842 84.40727723 -7.76824807 84.42498847 -9.8515625 84.40234375 C-10.92921875 84.39332031 -12.006875 84.38429688 -13.1171875 84.375 C-14.34695313 84.35759766 -14.34695313 84.35759766 -15.6015625 84.33984375 C-15.84003906 84.90058594 -16.07851562 85.46132813 -16.32421875 86.0390625 C-21.43245925 95.24014401 -31.92457418 102.74565533 -41.59765625 106.50390625 C-48.75419138 108.49545179 -55.83864077 108.12863207 -62.4765625 104.71484375 C-71.59242832 98.81634234 -76.96348313 89.67764007 -79.9140625 79.33984375 C-80.17623305 78.01260536 -80.40257804 76.67801426 -80.6015625 75.33984375 C-80.7459375 74.46070313 -80.8903125 73.5815625 -81.0390625 72.67578125 C-83.00344296 57.16536051 -77.46670826 43.90090906 -68.2265625 31.65234375 C-67.03323717 30.20236087 -65.82431114 28.76510213 -64.6015625 27.33984375 C-63.93511719 26.540625 -63.26867188 25.74140625 -62.58203125 24.91796875 C-49.52106266 9.76253853 -21.56254275 -12.78285762 0 0 Z M-16.6015625 21.33984375 C-19.91804672 23.52134732 -23.22897025 25.71115592 -26.5390625 27.90234375 C-27.46525391 28.51142578 -28.39144531 29.12050781 -29.34570312 29.74804688 C-38.32094249 35.58747032 -38.32094249 35.58747032 -46.6015625 42.33984375 C-46.6015625 42.99984375 -46.6015625 43.65984375 -46.6015625 44.33984375 C-47.1996875 44.59507812 -47.7978125 44.8503125 -48.4140625 45.11328125 C-53.66610462 48.0581763 -56.2273259 53.71029416 -57.83984375 59.31640625 C-58.88084383 63.30051446 -59.76519224 67.3081102 -60.6015625 71.33984375 C-60.81425781 72.26023437 -61.02695313 73.180625 -61.24609375 74.12890625 C-61.77089979 77.3930845 -61.01496824 79.38454083 -59.6015625 82.33984375 C-56.53552605 85.3069758 -53.5281541 85.61903092 -49.4140625 85.83984375 C-40.40700068 85.58527 -33.55927776 80.63375754 -26.6015625 75.33984375 C-26.8490625 73.79296875 -26.8490625 73.79296875 -27.1015625 72.21484375 C-29.39517196 52.77051283 -23.96596729 38.86761802 -14.6015625 22.33984375 C-15.2615625 22.00984375 -15.9215625 21.67984375 -16.6015625 21.33984375 Z " fill="#E7935B" transform="translate(1434.6015625,432.66015625)"/>
<path d="M0 0 C0.75602318 0.00037972 1.51204636 0.00075944 2.29097933 0.00115067 C3.16033587 -0.00084038 4.02969242 -0.00283143 4.9253931 -0.00488281 C5.89132639 -0.00196997 6.85725967 0.00094287 7.85246366 0.00394398 C8.87012263 0.00308955 9.88778159 0.00223513 10.9362787 0.00135481 C14.37425441 -0.00030305 17.81218221 0.00522638 21.25015348 0.01067311 C23.70347175 0.01095494 26.1567901 0.01079732 28.61010832 0.0102306 C33.90631893 0.01000228 39.20251439 0.01285368 44.49872106 0.01846844 C52.15622915 0.02658127 59.81373128 0.02919844 67.4712432 0.03045643 C79.8938065 0.03264729 92.31636326 0.03930831 104.73892301 0.04875904 C116.80923518 0.05793228 128.87954557 0.06501354 140.94986051 0.06926686 C142.06510928 0.06966094 142.06510928 0.06966094 143.20288832 0.07006299 C146.93265141 0.07136799 150.66241452 0.0726317 154.39217764 0.07387489 C185.35452526 0.08424857 216.31686475 0.10194194 247.27920622 0.1241985 C247.27920622 5.7341985 247.27920622 11.3441985 247.27920622 17.1241985 C164.77920622 17.1241985 82.27920622 17.1241985 -2.72079378 17.1241985 C-2.72079378 0.19637362 -2.72079378 0.19637362 0 0 Z " fill="#E7935B" transform="translate(855.7207937836647,472.8758015036583)"/>
<path d="M0 0 C1.28455078 -0.06251953 2.56910156 -0.12503906 3.89257812 -0.18945312 C13.12194217 -0.34800024 13.12194217 -0.34800024 16.15380859 2.24267578 C20.70043112 9.29067639 21.27570625 17.722127 19.76171875 25.84765625 C18.09303355 31.16083183 14.92468836 34.67419487 10.1875 37.5625 C4.36795747 40.26541549 -1.65536158 39.85715975 -7.9375 39.8125 C-9.00226563 39.82023437 -10.06703125 39.82796875 -11.1640625 39.8359375 C-18.55825705 39.81799043 -25.56153145 38.9934621 -32.8125 37.5625 C-32.22927979 36.69564575 -32.22927979 36.69564575 -31.63427734 35.8112793 C-30.01630242 33.40200906 -28.41263163 30.98365986 -26.8125 28.5625 C-26.20148438 27.63824219 -25.59046875 26.71398437 -24.9609375 25.76171875 C-20.12094483 18.31636832 -16.62504175 12.39279188 -16.12109375 3.3828125 C-16.01925781 2.78210938 -15.91742187 2.18140625 -15.8125 1.5625 C-11.22094308 -0.73327846 -5.04031017 0.10777391 0 0 Z " fill="#0C9BE2" transform="translate(1292.8125,386.4375)"/>
<path d="M0 0 C3.0625 1.9375 3.0625 1.9375 5 5 C6.31367275 11.82640661 4.76129754 17.29659458 1 23 C-2.48382796 27.89619065 -5.61087678 30.54180344 -11 33 C-15.08218134 33.66647859 -16.61129234 33.21677927 -20.25 31.1875 C-23.79218673 28.36985146 -24.89125032 26.90106879 -25.4375 22.375 C-25.24283924 14.8110391 -20.03392287 8.27948009 -15 3 C-10.0744615 -1.36581822 -6.14586287 -1.89798706 0 0 Z " fill="#E1935E" transform="translate(1839,391)"/>
</svg>
